<svg width="658" height="490" viewBox="0 0 658 490" fill="none" xmlns="http://www.w3.org/2000/svg">
<path d="M328.999 489.999C188.079 489.999 73.8402 483.333 73.8402 475.111C73.8402 466.888 188.079 460.223 328.999 460.223C469.92 460.223 584.159 466.888 584.159 475.111C584.159 483.333 469.92 489.999 328.999 489.999Z" fill="#F5F5F5"/>
<path d="M209.626 383.016C186.6 383.016 167.935 364.361 167.935 341.35C167.935 318.338 186.6 299.684 209.626 299.684C232.651 299.684 251.316 318.338 251.316 341.35C251.316 364.361 232.651 383.016 209.626 383.016Z" fill="white"/>
<path d="M209.626 383.53C217.974 383.533 226.135 381.061 233.077 376.428C240.019 371.795 245.431 365.208 248.627 357.501C251.823 349.794 252.661 341.313 251.034 333.13C249.407 324.947 245.388 317.431 239.487 311.531C233.585 305.63 226.065 301.612 217.878 299.983C209.69 298.355 201.204 299.189 193.491 302.381C185.779 305.573 179.187 310.98 174.549 317.916C169.911 324.853 167.435 333.008 167.435 341.351C167.445 352.532 171.894 363.252 179.803 371.16C187.713 379.067 198.438 383.516 209.626 383.53ZM209.626 300.211C217.771 300.211 225.732 302.625 232.504 307.147C239.276 311.67 244.554 318.098 247.67 325.619C250.787 333.139 251.601 341.414 250.011 349.397C248.421 357.381 244.498 364.714 238.738 370.468C232.978 376.223 225.64 380.142 217.651 381.728C209.663 383.315 201.383 382.498 193.859 379.381C186.335 376.264 179.905 370.987 175.382 364.218C170.859 357.449 168.446 349.491 168.448 341.351C168.459 330.441 172.801 319.981 180.521 312.267C188.242 304.554 198.709 300.218 209.626 300.211Z" fill="#019A72"/>
<path d="M202.914 317.727H216.337V364.969H202.914V317.727Z" fill="#019A72"/>
<path d="M185.991 348.071V334.656H233.261V348.071H185.991Z" fill="#019A72"/>
<path d="M492.039 26.3985L492.934 25.4384C486.842 19.6831 479.112 15.9605 470.812 14.7852L470.628 16.1004C478.66 17.2325 486.142 20.8312 492.039 26.3985Z" fill="#019A72"/>
<path d="M501.778 40.7782L503.001 40.3047C501.673 36.9542 499.903 33.7961 497.737 30.9141L496.685 31.7032C498.773 34.4923 500.485 37.5434 501.778 40.7782Z" fill="#019A72"/>
<path d="M465.061 91.1596C445.118 91.1596 428.95 75.0018 428.95 55.07C428.95 35.1383 445.118 18.9805 465.061 18.9805C485.005 18.9805 501.172 35.1383 501.172 55.07C501.172 75.0018 485.005 91.1596 465.061 91.1596Z" fill="#019A72"/>
<path d="M443.492 38.815C444.883 37.3721 446.548 36.2207 448.389 35.4283C450.23 34.6358 452.211 34.2182 454.216 34.1999C456.22 34.1815 458.209 34.5627 460.064 35.3213C461.919 36.0799 463.605 37.2005 465.022 38.6177C466.438 37.2009 468.122 36.0805 469.977 35.3221C471.831 34.5637 473.818 34.1826 475.822 34.2009C477.825 34.2193 479.805 34.6368 481.645 35.4291C483.485 36.2214 485.149 37.3725 486.539 38.815C489.262 41.7591 490.729 45.6485 490.628 49.6567C490.528 53.6648 488.867 57.4757 485.999 60.2794L468.891 77.3772C468.378 77.8902 467.768 78.2971 467.098 78.5748C466.427 78.8524 465.708 78.9953 464.983 78.9953C464.257 78.9953 463.538 78.8524 462.867 78.5748C462.197 78.2971 461.587 77.8902 461.074 77.3772L443.966 60.2794C441.107 57.467 439.459 53.6513 439.37 49.6433C439.282 45.6352 440.76 41.7507 443.492 38.815Z" fill="white"/>
<path d="M465.062 70.8395C465.327 70.8305 465.583 70.7415 465.797 70.5842C466.011 70.4269 466.172 70.2088 466.259 69.9583L473.879 47.6917L477.064 57.0034C477.154 57.2622 477.323 57.4862 477.547 57.6442C477.772 57.8022 478.04 57.8863 478.314 57.8846H491.066C491.415 57.8846 491.75 57.7461 491.996 57.4994C492.243 57.2528 492.382 56.9182 492.382 56.5694C492.382 56.2206 492.243 55.8861 491.996 55.6394C491.75 55.3928 491.415 55.2542 491.066 55.2542H479.222L475.09 43.1936C475 42.9352 474.832 42.7111 474.609 42.5525C474.386 42.3938 474.12 42.3086 473.846 42.3086C473.572 42.3086 473.306 42.3938 473.083 42.5525C472.86 42.7111 472.692 42.9352 472.602 43.1936L464.851 65.8549L457.324 48.1389C457.228 47.9131 457.072 47.7183 456.872 47.5765C456.672 47.4348 456.437 47.3517 456.192 47.3366C455.945 47.3224 455.7 47.3778 455.484 47.4964C455.267 47.615 455.088 47.7921 454.968 48.0073L450.994 55.241H439.005C438.656 55.241 438.321 55.3796 438.074 55.6263C437.828 55.8729 437.689 56.2074 437.689 56.5563C437.689 56.9051 437.828 57.2396 438.074 57.4863C438.321 57.7329 438.656 57.8715 439.005 57.8715H451.757C451.992 57.8734 452.224 57.8122 452.428 57.6942C452.631 57.5763 452.8 57.4058 452.915 57.2007L456.034 51.6242L463.851 70.0372C463.952 70.275 464.12 70.4778 464.336 70.6205C464.551 70.7631 464.803 70.8393 465.062 70.8395Z" fill="#019A72"/>
<path d="M264.7 429.031H402.051C404.289 429.055 406.508 428.615 408.566 427.736C410.624 426.858 412.477 425.561 414.007 423.928C415.537 422.295 416.71 420.362 417.452 418.252C418.194 416.142 418.488 413.9 418.317 411.67L396.116 82.8652C395.728 78.1694 393.607 73.7854 390.166 70.5648C386.725 67.3443 382.208 65.5172 377.494 65.4386H240.117C237.873 65.4129 235.648 65.8554 233.585 66.7378C231.522 67.6202 229.666 68.9231 228.135 70.5631C226.604 72.2032 225.432 74.1444 224.695 76.2627C223.957 78.3809 223.67 80.6297 223.851 82.8652L246.092 411.67C246.492 416.353 248.617 420.72 252.054 423.928C255.492 427.135 259.998 428.953 264.7 429.031Z" fill="#012D25"/>
<path d="M234.248 199.337H237.709C238.336 199.345 238.957 199.222 239.533 198.975C240.109 198.729 240.628 198.365 241.055 197.907C241.483 197.449 241.81 196.907 242.015 196.315C242.221 195.723 242.3 195.095 242.249 194.471L237.998 131.617C237.9 130.302 237.31 129.073 236.348 128.171C235.385 127.27 234.119 126.763 232.8 126.75H229.339C228.712 126.743 228.091 126.866 227.515 127.112C226.939 127.359 226.42 127.722 225.993 128.181C225.565 128.639 225.238 129.181 225.033 129.773C224.827 130.364 224.748 130.992 224.799 131.617L229.05 194.471C229.148 195.785 229.737 197.015 230.7 197.916C231.663 198.817 232.929 199.324 234.248 199.337Z" fill="#012D25"/>
<path d="M398.115 157.405H401.563C402.073 157.411 402.579 157.312 403.049 157.113C403.519 156.914 403.942 156.62 404.292 156.249C404.643 155.878 404.912 155.439 405.083 154.958C405.254 154.478 405.324 153.967 405.287 153.459L403.748 130.758C403.651 129.693 403.163 128.7 402.378 127.972C401.594 127.244 400.568 126.831 399.497 126.813H396.036C395.527 126.81 395.024 126.911 394.556 127.112C394.089 127.312 393.668 127.607 393.32 127.977C392.972 128.347 392.703 128.785 392.532 129.264C392.361 129.742 392.29 130.251 392.325 130.758L393.865 153.459C393.959 154.526 394.446 155.52 395.231 156.248C396.016 156.977 397.044 157.389 398.115 157.405Z" fill="#019A72"/>
<path d="M400.853 197.944H404.314C404.823 197.949 405.328 197.848 405.796 197.648C406.264 197.449 406.686 197.154 407.035 196.783C407.383 196.413 407.651 195.974 407.822 195.494C407.992 195.015 408.062 194.505 408.025 193.998L406.486 171.297C406.388 170.232 405.901 169.239 405.116 168.511C404.332 167.783 403.305 167.37 402.235 167.352H398.747C398.239 167.349 397.735 167.451 397.268 167.651C396.801 167.851 396.38 168.146 396.031 168.516C395.683 168.886 395.415 169.324 395.244 169.803C395.073 170.282 395.002 170.79 395.036 171.297L396.576 193.998C396.671 195.069 397.161 196.067 397.952 196.796C398.743 197.526 399.777 197.935 400.853 197.944Z" fill="#019A72"/>
<path d="M267.608 429.025H404.959C407.197 429.05 409.415 428.609 411.474 427.73C413.532 426.852 415.385 425.555 416.915 423.922C418.445 422.29 419.618 420.357 420.36 418.246C421.102 416.136 421.396 413.894 421.224 411.664L399.01 82.8594C398.609 78.1619 396.474 73.7816 393.02 70.5704C389.566 67.3591 385.04 65.5466 380.323 65.4854H243.025C240.786 65.4604 238.566 65.9015 236.506 66.7808C234.447 67.66 232.593 68.958 231.063 70.5923C229.533 72.2265 228.36 74.1612 227.619 76.2731C226.878 78.3851 226.585 80.6281 226.759 82.8594L248.986 411.664C249.387 416.349 251.513 420.719 254.954 423.926C258.394 427.134 262.903 428.951 267.608 429.025Z" fill="#019A72"/>
<path opacity="0.3" d="M419.777 407.982L398.09 87.1211H228.247L249.934 407.982H419.777Z" fill="white"/>
<path opacity="0.1" d="M352.728 407.982L292.113 87.1211H254.067L314.682 407.982H352.728Z" fill="white"/>
<path opacity="0.1" d="M381.469 407.982L320.854 87.1211H301.574L362.189 407.982H381.469Z" fill="white"/>
<path d="M328.816 73.5511H295.692C295.415 73.5463 295.141 73.5997 294.886 73.7077C294.632 73.8158 294.403 73.976 294.214 74.1781C294.026 74.3803 293.882 74.6197 293.792 74.881C293.702 75.1423 293.668 75.4196 293.692 75.6949C293.737 76.2744 293.997 76.8161 294.42 77.2148C294.843 77.6135 295.4 77.8406 295.981 77.8518H329.105C329.382 77.8547 329.657 77.7996 329.911 77.6901C330.166 77.5806 330.395 77.4191 330.583 77.216C330.771 77.0128 330.915 76.7726 331.005 76.5106C331.095 76.2487 331.129 75.9708 331.105 75.6949C331.06 75.1167 330.799 74.5764 330.376 74.1799C329.952 73.7833 329.396 73.5591 328.816 73.5511Z" fill="white"/>
<path d="M335.711 460.657L347.319 461.762L351.503 434.997L339.896 433.879L335.711 460.657Z" fill="#FF887B"/>
<path d="M348.648 456.092L336.488 452.317C336.279 452.244 336.049 452.256 335.848 452.349C335.646 452.442 335.489 452.61 335.409 452.817L331.461 462.457C331.363 462.716 331.32 462.992 331.334 463.268C331.347 463.544 331.419 463.814 331.542 464.061C331.666 464.308 331.839 464.527 332.052 464.704C332.265 464.88 332.512 465.011 332.777 465.088C337.173 466.403 341.358 466.705 346.661 469.033C352.859 471.664 355.452 475.189 362.124 475.189C366.901 475.189 367.98 470.809 365.954 470.204C356.742 467.416 357.952 465.127 351.267 457.933C350.572 457.099 349.668 456.464 348.648 456.092Z" fill="#012D25"/>
<path opacity="0.2" d="M351.503 434.997L349.345 448.807L337.725 447.689L339.883 433.879L351.503 434.997Z" fill="#252727"/>
<path d="M343.107 96.8014C358.333 95.0127 373.48 96.2096 388.68 99.1557C391.213 99.647 393.523 100.932 395.277 102.824C397.03 104.715 398.135 107.116 398.432 109.677C400.077 124.224 401.958 156.828 394.615 205.465L332.395 200.204C332.276 191.379 338.554 151.173 333.368 109.454C333.156 107.981 333.241 106.481 333.619 105.042C333.996 103.602 334.658 102.253 335.566 101.074C336.474 99.8945 337.609 98.9089 338.904 98.1751C340.199 97.4413 341.628 96.9742 343.107 96.8014Z" fill="white"/>
<path d="M379.337 109.271L377.113 113.716C377.009 113.941 376.844 114.131 376.637 114.266C376.43 114.401 376.189 114.475 375.942 114.479L373.533 114.611C373.104 114.629 372.681 114.499 372.336 114.243L368.19 111.152L373.31 107.43L379.337 109.271Z" fill="#012D25"/>
<path d="M373.454 113.328C374.332 112.922 375.326 112.843 376.257 113.105C378.218 120.01 380.363 139.83 380.587 148.616C374.639 165.937 372.691 167.686 372.691 167.686L369.677 146.84C369.677 146.84 373.059 125.521 373.454 113.328Z" fill="#012D25"/>
<path d="M356.281 66.8125C357.702 75.3877 358.913 91.052 352.754 96.589C357.268 101.324 363.176 106.808 373.31 107.426C383.443 108.045 381.877 101.034 379.311 97.2861C369.849 94.7609 370.309 87.7113 372.165 81.1221L356.281 66.8125Z" fill="#FF887B"/>
<path d="M350.174 95.8425C350.891 95.5332 351.636 95.291 352.398 95.1191C352.584 95.0698 352.782 95.083 352.96 95.1567C353.138 95.2303 353.288 95.3604 353.385 95.5269C354.359 97.184 357.333 104.589 373.309 107.43C370.677 108.982 367.19 113.795 365.689 116.11C360.899 113.624 348.437 106.193 349.621 96.579C349.645 96.4202 349.708 96.2698 349.805 96.1413C349.901 96.0128 350.028 95.9102 350.174 95.8425Z" fill="#F5F5F5"/>
<path d="M379.219 97.6851C379.185 97.5355 379.189 97.3798 379.231 97.2322C379.273 97.0846 379.351 96.9498 379.458 96.84C379.565 96.7303 379.698 96.649 379.845 96.6037C379.992 96.5583 380.147 96.5503 380.298 96.5803C380.851 96.6876 381.396 96.8326 381.93 97.0143C382.053 97.0625 382.168 97.129 382.272 97.2116C383.496 98.3427 390.168 107.97 383.917 115.756C382.601 113.639 378.061 108.838 373.31 107.431C377.811 105.405 380.021 101.631 379.219 97.6851Z" fill="#F5F5F5"/>
<path opacity="0.2" d="M362.756 72.6523L372.152 81.1223C371.699 82.6522 371.382 84.219 371.204 85.8045C367.572 85.1864 362.69 81.0697 362.427 77.2556C362.249 75.7141 362.36 74.1529 362.756 72.6523Z" fill="#252727"/>
<path d="M375.31 40.8891C383.416 44.0588 383.943 50.7138 383.206 57.9869C382.469 65.2601 374.546 60.4464 372.783 55.8957C371.019 51.3451 364.084 36.4963 375.31 40.8891Z" fill="#012D25"/>
<path d="M349.451 55.3972C351.701 66.8528 352.451 73.6525 359.005 78.9265C368.888 86.8178 382.272 80.005 383.456 68.1943C384.522 57.5542 380.666 40.5747 368.862 37.2604C366.287 36.5029 363.56 36.4298 360.948 37.0483C358.337 37.6669 355.932 38.9557 353.972 40.7873C352.012 42.619 350.564 44.9301 349.771 47.4924C348.978 50.0546 348.867 52.7793 349.451 55.3972Z" fill="#FF887B"/>
<path d="M349.924 64.8814C359.571 65.3944 357.531 59.923 355.78 56.7797C354.03 53.6363 357.597 48.4412 355.267 45.745C359.426 47.4022 363.808 46.0343 369.375 42.1676C373.691 39.1558 379.1 51.19 384.364 45.1532C389.338 39.4583 384.719 30.8699 372.77 29.4889C360.821 28.1079 358.649 36.5516 350.806 35.802C342.963 35.0523 345.687 41.51 347.226 42.8252C340.646 43.2592 337.054 49.546 349.924 64.8814Z" fill="#012D25"/>
<path d="M348.739 43.6308C347.23 42.8035 345.969 41.5882 345.088 40.1106C344.206 38.633 343.736 36.9468 343.725 35.2266C341.12 39.7904 341.396 44.9723 348.739 43.6308Z" fill="#012D25"/>
<path d="M373.743 67.6283C372.695 67.8096 371.62 67.7773 370.584 67.5332C369.549 67.2891 368.573 66.8383 367.716 66.2078C367.69 66.1832 367.669 66.1537 367.655 66.1209C367.641 66.0881 367.634 66.0528 367.634 66.0171C367.634 65.9814 367.641 65.9461 367.655 65.9133C367.669 65.8806 367.69 65.851 367.716 65.8264C367.767 65.7774 367.836 65.75 367.907 65.75C367.978 65.75 368.046 65.7774 368.098 65.8264C369.057 66.5063 370.162 66.9541 371.324 67.1344C372.487 67.3147 373.675 67.2226 374.796 66.8654C374.868 66.8476 374.943 66.8565 375.009 66.8904C375.074 66.9243 375.125 66.9809 375.151 67.0496C375.172 67.1193 375.164 67.1944 375.13 67.2584C375.095 67.3224 375.037 67.3702 374.967 67.3915C374.567 67.5068 374.157 67.5861 373.743 67.6283Z" fill="#012D25"/>
<path d="M347.121 68.3943C348.923 70.715 351.564 72.2359 354.477 72.6293C358.307 73.1291 359.583 69.5648 357.978 66.2373C356.517 63.2386 352.714 59.3719 349.187 60.4109C345.66 61.4499 344.91 65.5008 347.121 68.3943Z" fill="#FF887B"/>
<path d="M350.924 317.458C350.463 283.118 346.068 201.324 346.068 201.324L394.576 205.415C394.576 205.415 384.929 289.707 379.113 324.744C373.059 361.163 354.49 446.481 354.49 446.481L334.75 444.797C334.75 444.797 341.962 344.012 350.924 317.458Z" fill="#012D25"/>
<path d="M355.675 447.02L332.264 445.034L333.185 437.484L357.583 439.115L355.675 447.02Z" fill="#019A72"/>
<path d="M366.742 56.0824C366.861 57.0163 367.466 57.7265 368.058 57.6607C368.651 57.5949 369.059 56.7795 368.927 55.8326C368.795 54.8856 368.203 54.1885 367.611 54.2543C367.019 54.3201 366.611 55.1486 366.742 56.0824Z" fill="#012D25"/>
<path d="M377.481 55.2372C377.6 56.1841 378.205 56.8812 378.797 56.8154C379.389 56.7497 379.797 55.9343 379.666 55.0004C379.534 54.0666 378.942 53.3564 378.35 53.4222C377.757 53.488 377.35 54.2508 377.481 55.2372Z" fill="#012D25"/>
<path d="M374.454 56.3438C376.039 58.7776 377.942 60.9891 380.113 62.9198C378.718 64.3797 375.836 63.9852 375.836 63.9852L374.454 56.3438Z" fill="#FF887B"/>
<path opacity="0.4" d="M384.272 55.4766C384.469 56.9759 382.956 58.2254 380.863 58.4884C378.771 58.7515 376.836 57.6072 376.652 56.1079" fill="#019A72"/>
<path opacity="0.4" d="M371.835 56.875C372.125 58.3612 370.664 59.7027 368.611 60.0973C366.558 60.4919 364.545 59.4397 364.268 57.9666" fill="#019A72"/>
<path d="M367.795 60.5023C368.032 60.5154 368.269 60.5154 368.506 60.5023C369.517 60.3814 370.468 59.9546 371.23 59.2791C371.563 58.995 371.822 58.6354 371.987 58.2303C372.152 57.8253 372.217 57.3867 372.178 56.9512C372.845 56.6606 373.557 56.4828 374.283 56.4251C375.013 56.243 375.777 56.243 376.507 56.4251C376.691 58.0297 378.692 59.1344 380.929 58.8583C381.941 58.7477 382.893 58.3248 383.653 57.6483C383.984 57.3628 384.242 57.0029 384.407 56.5982C384.572 56.1936 384.638 55.7556 384.601 55.3203L383.969 55.3992C383.996 55.7355 383.941 56.0733 383.811 56.3845C383.68 56.6956 383.477 56.9711 383.219 57.1879C382.556 57.7711 381.728 58.1341 380.85 58.2269C378.955 58.4768 377.271 57.5956 377.099 56.2804C377.007 55.5439 375.481 55.5965 374.217 55.7543C372.954 55.9122 371.454 56.2673 371.585 56.9906C371.613 57.3271 371.559 57.6652 371.429 57.9765C371.298 58.2878 371.095 58.5632 370.835 58.7793C370.164 59.3547 369.339 59.7211 368.462 59.8333C367.585 59.9455 366.695 59.7985 365.9 59.4106C365.594 59.268 365.326 59.0538 365.12 58.7859C364.914 58.5181 364.775 58.2045 364.716 57.8718V57.5562L348.476 59.6474L348.555 60.2787L364.189 58.2664C364.303 58.6325 364.49 58.9717 364.739 59.2633C364.988 59.555 365.293 59.793 365.637 59.963C366.302 60.3148 367.043 60.4999 367.795 60.5023Z" fill="#012D25"/>
<path d="M362.61 51.952C362.517 51.9523 362.425 51.9248 362.347 51.8731C362.219 51.7987 362.126 51.6772 362.086 51.5346C362.047 51.392 362.065 51.2397 362.137 51.1103C362.544 50.3453 363.135 49.6929 363.856 49.2111C364.577 48.7292 365.406 48.4329 366.269 48.3483C366.417 48.3411 366.562 48.3921 366.673 48.4905C366.783 48.5889 366.851 48.7267 366.861 48.8744C366.868 49.0188 366.819 49.1603 366.723 49.2685C366.627 49.3767 366.492 49.443 366.348 49.4531C365.665 49.5332 365.012 49.7788 364.445 50.1684C363.879 50.5581 363.416 51.08 363.097 51.689C363.048 51.7727 362.976 51.8413 362.89 51.8877C362.804 51.934 362.708 51.9562 362.61 51.952Z" fill="#012D25"/>
<path d="M380.955 50.4648C380.864 50.4737 380.773 50.4605 380.688 50.4261C380.603 50.3917 380.528 50.3373 380.469 50.2675C380.043 49.7106 379.493 49.2611 378.862 48.955C378.231 48.649 377.537 48.4949 376.836 48.5052C376.764 48.5124 376.69 48.5052 376.621 48.4839C376.551 48.4627 376.486 48.4278 376.429 48.3814C376.373 48.3349 376.327 48.2777 376.293 48.2132C376.259 48.1487 376.238 48.078 376.231 48.0054C376.222 47.9345 376.227 47.8625 376.246 47.7935C376.265 47.7246 376.297 47.6601 376.341 47.6038C376.385 47.5475 376.44 47.5005 376.503 47.4656C376.565 47.4307 376.634 47.4085 376.705 47.4004C377.589 47.3773 378.466 47.5615 379.266 47.9384C380.066 48.3153 380.766 48.8742 381.311 49.5705C381.405 49.6823 381.45 49.8266 381.438 49.972C381.426 50.1174 381.356 50.252 381.245 50.3465C381.159 50.4082 381.06 50.4487 380.955 50.4648Z" fill="#012D25"/>
<path d="M310.51 311.919C320.577 260.204 322.841 219.761 332.395 200.125L379.389 205.386C379.389 205.386 351.398 282.444 337.725 315.338C323.525 349.534 295.494 407.956 295.494 407.956H272.017C272.017 407.956 293.928 335.474 310.51 311.919Z" fill="#012D25"/>
<path d="M459.468 116.146L464.548 112.937C465.372 112.406 466.356 112.177 467.33 112.29C468.304 112.403 469.209 112.85 469.891 113.555L473.339 117.185C473.71 117.576 473.997 118.04 474.182 118.547C474.367 119.054 474.446 119.594 474.413 120.133C474.381 120.671 474.239 121.198 473.995 121.679C473.752 122.161 473.412 122.587 472.996 122.932L470.536 125.037C468.395 126.849 465.898 128.194 463.205 128.982L455.77 131.179L450.888 125.918C449.401 120.433 459.468 116.146 459.468 116.146Z" fill="#FF887B"/>
<path d="M384.272 113.684C386.114 118.182 387.917 122.365 389.878 126.639C391.839 130.914 393.826 135.136 396.023 139.331C398.221 143.527 400.564 147.696 403.222 151.878C404.538 153.956 405.999 156.034 407.657 158.126C409.44 160.431 411.47 162.535 413.711 164.399C415.19 165.608 416.823 166.616 418.567 167.398C419.119 167.608 419.633 167.819 420.238 168.003L421.159 168.253C421.623 168.367 422.093 168.45 422.567 168.503C424.171 168.683 425.795 168.567 427.357 168.161C429.311 167.614 431.167 166.767 432.858 165.649C434.125 164.858 435.335 163.979 436.477 163.018C440.275 159.704 443.776 156.065 446.94 152.141C450.006 148.459 452.901 144.763 455.678 140.988C458.455 137.214 461.126 133.505 463.863 129.546L449.308 120.155C444.715 127.565 439.633 134.661 434.095 141.396C431.55 144.516 428.746 147.415 425.712 150.063C425.125 150.544 424.505 150.983 423.857 151.379C423.37 151.707 422.883 151.839 423.225 151.721C423.688 151.593 424.173 151.566 424.646 151.642C424.838 151.659 425.027 151.694 425.212 151.747H425.318C425.383 151.747 425.383 151.747 425.397 151.747C425.097 151.551 424.812 151.336 424.541 151.102C423.34 150.013 422.251 148.805 421.291 147.499C420.172 145.999 419.053 144.316 417.988 142.567C415.809 138.93 413.823 135.18 412.039 131.335C410.197 127.389 408.42 123.443 406.775 119.34C405.13 115.236 403.564 111.067 402.235 107.082L384.272 113.684Z" fill="#019A72"/>
<g opacity="0.6">
<path d="M384.272 113.688C386.115 118.186 387.917 122.369 389.878 126.643C391.839 130.918 393.826 135.14 396.024 139.335C398.222 143.531 400.564 147.7 403.222 151.882C404.538 153.96 405.999 156.038 407.657 158.13C409.44 160.435 411.47 162.539 413.711 164.403C415.191 165.612 416.823 166.62 418.567 167.402C419.12 167.612 419.633 167.823 420.238 168.007L421.16 168.257C421.623 168.37 422.093 168.454 422.568 168.507C424.172 168.687 425.796 168.571 427.358 168.165C429.311 167.618 431.167 166.771 432.859 165.653C434.126 164.862 435.335 163.983 436.478 163.022C440.276 159.708 443.777 156.069 446.94 152.145C450.006 148.463 452.901 144.767 455.678 140.992C458.455 137.218 461.126 133.509 463.864 129.55L449.309 120.159C444.716 127.569 439.633 134.665 434.096 141.4C431.55 144.519 428.746 147.419 425.713 150.067C425.125 150.548 424.505 150.987 423.857 151.382C423.37 151.711 422.884 151.843 423.226 151.724C423.688 151.597 424.173 151.57 424.647 151.646C424.838 151.663 425.028 151.698 425.213 151.751H425.318C425.384 151.751 425.384 151.751 425.397 151.751C425.098 151.555 424.812 151.34 424.542 151.106C423.34 150.017 422.252 148.809 421.291 147.503C420.173 146.003 419.054 144.32 417.988 142.571C415.809 138.934 413.824 135.184 412.04 131.339C410.197 127.393 408.421 123.447 406.776 119.344C405.131 115.24 403.565 111.071 402.236 107.086L384.272 113.688Z" fill="white"/>
</g>
<path d="M349.819 93.5014C354.754 102.708 372.323 137.785 374.454 159.433C382.232 139.705 380.534 96.066 380.534 96.066C386.077 96.606 391.515 97.9346 396.682 100.012C398.347 100.695 399.79 101.827 400.852 103.28C401.913 104.733 402.551 106.452 402.696 108.245C404.211 130.825 403.496 153.499 400.564 175.939C395.102 218.421 390.036 284.484 390.036 284.484C390.036 284.484 346.542 282.669 312.984 275.593C317.077 243.121 331.079 188.697 331.211 174.124C331.369 155.369 330.934 118.701 330.342 103.392C330.243 101.23 330.921 99.1048 332.253 97.3993C333.585 95.6939 335.484 94.5212 337.606 94.0932C341.632 93.3476 345.74 93.1486 349.819 93.5014Z" fill="#019A72"/>
<path opacity="0.7" d="M349.819 93.4999C354.754 102.706 372.323 137.783 374.454 159.432C382.232 139.704 380.534 96.0646 380.534 96.0646C386.077 96.6045 391.515 97.9332 396.682 100.01C398.347 100.694 399.79 101.825 400.852 103.278C401.913 104.732 402.551 106.45 402.696 108.244C404.211 130.823 403.496 153.498 400.564 175.938C395.102 218.419 390.036 284.483 390.036 284.483C390.036 284.483 346.542 282.668 312.984 275.592C317.077 243.119 331.079 188.695 331.211 174.123C331.369 155.368 330.934 118.686 330.342 103.377C330.218 101.282 330.837 99.2092 332.091 97.5251C333.346 95.841 335.154 94.6531 337.198 94.1707C341.353 93.3569 345.601 93.1311 349.819 93.4999Z" fill="white"/>
<path d="M360.071 277.432C367.624 235.779 373.612 174.661 374.099 167.309H373.428C372.941 174.661 366.94 235.7 359.399 277.353L360.071 277.432Z" fill="white"/>
<path d="M363.835 203.332H403.946C404.756 203.295 405.533 202.998 406.159 202.483C406.785 201.969 407.228 201.265 407.421 200.478L420.831 138.176C420.929 137.836 420.945 137.477 420.877 137.13C420.81 136.782 420.661 136.456 420.442 136.177C420.224 135.899 419.942 135.676 419.621 135.527C419.3 135.378 418.947 135.308 418.594 135.322H378.495C377.683 135.356 376.903 135.652 376.274 136.167C375.646 136.682 375.201 137.387 375.008 138.176L361.598 200.478C361.499 200.818 361.483 201.177 361.551 201.524C361.618 201.872 361.768 202.198 361.986 202.477C362.204 202.755 362.486 202.978 362.807 203.127C363.129 203.276 363.481 203.346 363.835 203.332Z" fill="white"/>
<path d="M365.084 203.86H405.88C406.705 203.822 407.495 203.518 408.133 202.994C408.771 202.471 409.223 201.755 409.42 200.954L423.067 137.6C423.165 137.252 423.179 136.887 423.109 136.533C423.038 136.18 422.885 135.848 422.662 135.564C422.439 135.281 422.152 135.054 421.824 134.903C421.497 134.751 421.138 134.68 420.777 134.693H379.981C379.157 134.731 378.366 135.035 377.729 135.559C377.091 136.083 376.639 136.798 376.441 137.6L362.808 200.954C362.707 201.3 362.691 201.665 362.759 202.019C362.828 202.373 362.979 202.705 363.202 202.989C363.424 203.273 363.711 203.5 364.038 203.652C364.365 203.803 364.724 203.875 365.084 203.86Z" fill="#019A72"/>
<path d="M360.412 168.113L370.559 167.732C371.779 167.69 372.994 167.905 374.125 168.363L379.389 170.467C379.883 170.663 380.332 170.956 380.71 171.329C381.088 171.702 381.387 172.148 381.588 172.639C381.79 173.13 381.89 173.657 381.883 174.188C381.876 174.719 381.762 175.243 381.547 175.728L379.442 180.279C379.017 181.161 378.301 181.871 377.414 182.288C376.527 182.704 375.524 182.803 374.573 182.567L368.769 181.121C368.769 181.121 357.873 180.253 357.478 174.545L360.412 168.113Z" fill="#FF887B"/>
<path d="M332.395 99.1406C329.882 103.086 327.579 106.69 325.315 110.557C323.052 114.423 320.828 118.251 318.735 122.249C316.643 126.247 314.656 130.377 312.853 134.796C311.917 137.11 311.117 139.477 310.458 141.885C309.609 144.82 309.219 147.867 309.3 150.921V151.434C309.295 151.521 309.295 151.609 309.3 151.697C309.3 152.17 309.431 152.644 309.523 153.117C309.615 153.591 309.734 153.959 309.865 154.432C309.997 154.906 310.142 155.156 310.287 155.524C310.79 156.662 311.435 157.731 312.208 158.707C313.283 160.05 314.506 161.267 315.853 162.337C317.923 163.966 320.124 165.422 322.433 166.69C326.496 168.91 330.678 170.904 334.962 172.661C339.107 174.424 343.239 176.028 347.398 177.541C351.556 179.053 355.649 180.513 359.979 181.96L364.993 165.388C361.045 164.31 357.018 162.981 353.083 161.64C349.148 160.298 345.187 158.799 341.449 157.234C337.782 155.719 334.205 153.994 330.737 152.065C329.274 151.254 327.879 150.326 326.565 149.29C326.22 149.028 325.911 148.723 325.644 148.382C325.758 148.51 325.847 148.657 325.907 148.816C325.907 148.935 325.973 149.014 326.039 149.158C326.091 149.313 326.13 149.471 326.158 149.632C326.213 149.834 326.248 150.041 326.263 150.25C326.263 150.329 326.263 150.342 326.263 150.316V150.224C326.355 148.976 326.598 147.744 326.987 146.554C327.513 144.832 328.137 143.142 328.855 141.491C330.464 137.85 332.283 134.306 334.304 130.877C336.357 127.352 338.541 123.827 340.884 120.355C343.226 116.883 345.621 113.424 348.029 110.267L332.395 99.1406Z" fill="#019A72"/>
<g opacity="0.7">
<path d="M332.394 99.1406C329.88 103.086 327.577 106.69 325.314 110.557C323.05 114.423 320.826 118.251 318.734 122.249C316.641 126.247 314.654 130.377 312.851 134.796C311.915 137.11 311.115 139.477 310.456 141.885C309.608 144.82 309.217 147.867 309.298 150.921V151.434C309.294 151.521 309.294 151.609 309.298 151.697C309.298 152.17 309.43 152.644 309.522 153.117C309.614 153.591 309.732 153.959 309.864 154.432C309.996 154.906 310.14 155.156 310.285 155.524C310.788 156.662 311.434 157.731 312.206 158.707C313.282 160.05 314.504 161.267 315.852 162.337C317.922 163.966 320.122 165.422 322.432 166.69C326.494 168.91 330.677 170.904 334.96 172.661C339.105 174.424 343.238 176.028 347.396 177.541C351.555 179.053 355.648 180.513 359.977 181.96L364.991 165.388C361.043 164.31 357.016 162.981 353.081 161.64C349.147 160.298 345.185 158.799 341.448 157.234C337.78 155.719 334.203 153.994 330.736 152.065C329.272 151.254 327.877 150.326 326.564 149.29C326.219 149.028 325.909 148.723 325.643 148.382C325.756 148.51 325.845 148.657 325.906 148.816C325.906 148.935 325.972 149.014 326.038 149.158C326.089 149.313 326.129 149.471 326.156 149.632C326.211 149.834 326.247 150.041 326.261 150.25C326.261 150.329 326.261 150.342 326.261 150.316V150.224C326.353 148.976 326.596 147.744 326.985 146.554C327.511 144.832 328.135 143.142 328.854 141.491C330.463 137.85 332.282 134.306 334.302 130.877C336.355 127.352 338.54 123.827 340.882 120.355C343.225 116.883 345.62 113.424 348.028 110.267L332.394 99.1406Z" fill="white"/>
</g>
<path d="M345.713 144.779C345.801 144.777 345.887 144.754 345.963 144.71C346.039 144.666 346.102 144.604 346.147 144.529C346.186 144.471 346.213 144.407 346.226 144.339C346.239 144.271 346.238 144.201 346.223 144.133C346.208 144.066 346.18 144.002 346.14 143.945C346.1 143.889 346.049 143.841 345.99 143.805L343.937 142.49C342.02 141.282 340.516 139.522 339.623 137.441C338.73 135.36 338.491 133.057 338.936 130.837L343.068 109.925C343.37 108.362 344.192 106.946 345.399 105.907C346.607 104.867 348.13 104.266 349.722 104.199C351.314 104.132 352.882 104.604 354.173 105.538C355.463 106.472 356.401 107.814 356.833 109.347L362.69 129.851C363.329 132.018 363.294 134.329 362.589 136.476C361.884 138.623 360.542 140.505 358.742 141.872L356.794 143.345C356.684 143.431 356.613 143.556 356.596 143.694C356.578 143.832 356.617 143.972 356.702 144.082C356.743 144.135 356.795 144.18 356.853 144.214C356.912 144.248 356.977 144.27 357.044 144.278C357.112 144.287 357.18 144.282 357.246 144.264C357.311 144.246 357.372 144.215 357.426 144.174L359.268 142.714C361.247 141.224 362.726 139.169 363.509 136.82C364.291 134.471 364.341 131.939 363.65 129.561L357.781 109.057C357.277 107.306 356.199 105.775 354.72 104.71C353.242 103.645 351.448 103.107 349.626 103.183C347.805 103.259 346.062 103.944 344.677 105.128C343.292 106.313 342.345 107.928 341.989 109.715L337.857 130.64C337.369 133.065 337.63 135.581 338.605 137.855C339.58 140.129 341.224 142.052 343.318 143.371L345.384 144.686C345.43 144.723 345.483 144.75 345.539 144.766C345.596 144.782 345.655 144.786 345.713 144.779Z" fill="#012D25"/>
<path d="M342.555 110.363L357.333 109.744C357.402 109.741 357.47 109.724 357.533 109.694C357.595 109.665 357.651 109.623 357.698 109.572C357.744 109.52 357.78 109.46 357.803 109.395C357.827 109.33 357.837 109.261 357.833 109.191C357.82 109.054 357.756 108.927 357.654 108.834C357.552 108.742 357.418 108.691 357.281 108.691L342.515 109.31C342.446 109.313 342.378 109.33 342.315 109.36C342.253 109.39 342.197 109.431 342.15 109.483C342.104 109.534 342.068 109.594 342.045 109.659C342.022 109.724 342.011 109.794 342.015 109.863C342.017 109.931 342.032 109.999 342.06 110.061C342.088 110.124 342.129 110.18 342.179 110.227C342.229 110.273 342.289 110.309 342.353 110.333C342.418 110.356 342.486 110.366 342.555 110.363Z" fill="#012D25"/>
<path d="M349.74 104.232C349.877 104.228 350.007 104.174 350.104 104.079C350.202 103.983 350.26 103.855 350.267 103.719C350.267 101.088 351.083 96.5244 353.543 95.5248C353.612 95.502 353.674 95.4654 353.728 95.4175C353.781 95.3695 353.824 95.3111 353.854 95.2458C353.884 95.1806 353.901 95.1099 353.902 95.0381C353.904 94.9663 353.891 94.895 353.864 94.8284C353.837 94.7619 353.796 94.7016 353.745 94.6512C353.694 94.6008 353.633 94.5615 353.566 94.5355C353.499 94.5096 353.428 94.4976 353.356 94.5004C353.284 94.5031 353.213 94.5206 353.149 94.5516C349.503 96.0509 349.201 102.916 349.201 103.758C349.201 103.897 349.254 104.03 349.349 104.13C349.445 104.231 349.575 104.291 349.714 104.297L349.74 104.232Z" fill="#012D25"/>
<path d="M394.944 122.105H395.05C395.185 122.077 395.304 121.996 395.381 121.88C395.457 121.764 395.485 121.623 395.458 121.487C393.72 112.846 386.535 99.2074 380.205 95.1828C380.147 95.1469 380.083 95.1228 380.016 95.112C379.949 95.1012 379.88 95.1038 379.814 95.1197C379.748 95.1356 379.686 95.1645 379.631 95.2047C379.576 95.2449 379.53 95.2955 379.494 95.3538C379.456 95.4101 379.43 95.4737 379.417 95.5407C379.404 95.6076 379.405 95.6764 379.42 95.7429C379.435 95.8095 379.463 95.8723 379.503 95.9275C379.543 95.9827 379.594 96.0291 379.652 96.064C385.772 99.9307 392.747 113.162 394.431 121.671C394.453 121.792 394.516 121.902 394.609 121.981C394.703 122.06 394.822 122.104 394.944 122.105Z" fill="#012D25"/>
<path d="M390.628 123.461C391.444 125.552 393.26 126.815 394.576 126.275C395.892 125.736 396.405 123.645 395.589 121.501C394.774 119.357 392.957 118.147 391.641 118.7C390.325 119.252 389.799 121.37 390.628 123.461Z" fill="white"/>
<path d="M355.885 143.837C355.885 144.811 356.491 145.587 357.136 145.56C357.78 145.534 358.28 144.719 358.241 143.732C358.201 142.746 357.636 141.97 356.991 142.009C356.346 142.049 355.846 142.851 355.885 143.837Z" fill="white"/>
<path d="M344.541 144.305C344.541 145.279 345.134 146.055 345.792 146.028C346.45 146.002 346.923 145.187 346.884 144.2C346.844 143.214 346.292 142.451 345.568 142.477C344.844 142.504 344.502 143.358 344.541 144.305Z" fill="white"/>
<path d="M121.375 126.069L122.691 125.99C122.472 123.19 122.838 120.375 123.765 117.723C124.692 115.072 126.161 112.642 128.078 110.588C129.994 108.534 132.317 106.901 134.899 105.791C137.481 104.682 140.265 104.121 143.076 104.144V102.829C140.085 102.804 137.122 103.4 134.374 104.579C131.626 105.759 129.154 107.496 127.114 109.681C125.073 111.866 123.509 114.452 122.522 117.273C121.534 120.094 121.143 123.089 121.375 126.069Z" fill="#019A72"/>
<path d="M120.681 131.583L121.443 142.473L120.127 142.565L119.365 131.675L120.681 131.583Z" fill="#019A72"/>
<path d="M143.076 107.431H233.88C238.839 107.512 243.59 109.434 247.209 112.823C250.829 116.212 253.057 120.825 253.462 125.765L254.291 137.983C254.479 140.334 254.176 142.699 253.399 144.926C252.623 147.153 251.39 149.194 249.781 150.919C248.171 152.644 246.22 154.015 244.051 154.944C241.882 155.874 239.543 156.341 237.183 156.317H146.379L128.771 167.168L125.981 125.765C125.791 123.414 126.093 121.05 126.868 118.823C127.643 116.596 128.874 114.555 130.482 112.829C132.091 111.104 134.041 109.733 136.21 108.804C138.378 107.874 140.717 107.406 143.076 107.431Z" fill="#019A72"/>
<path d="M147.683 124.938H231.788V127.989H147.683V124.938Z" fill="white"/>
<path d="M148.419 135.766H210.863V138.817H148.419V135.766Z" fill="white"/>
<path d="M279.677 172.798H186.872C184.46 172.772 182.068 173.249 179.85 174.198C177.632 175.148 175.636 176.549 173.99 178.313C172.345 180.076 171.085 182.163 170.292 184.441C169.498 186.718 169.189 189.136 169.383 191.54L170.225 204.034C170.642 209.083 172.921 213.796 176.62 217.259C180.319 220.723 185.174 222.689 190.241 222.776H283.059L302.562 233.89L299.693 191.54C299.279 186.49 297.001 181.775 293.301 178.311C289.602 174.847 284.745 172.882 279.677 172.798Z" fill="white"/>
<path opacity="0.15" d="M279.677 172.798H186.872C184.46 172.772 182.068 173.249 179.85 174.198C177.632 175.148 175.636 176.549 173.99 178.313C172.345 180.076 171.085 182.163 170.292 184.441C169.498 186.718 169.189 189.136 169.383 191.54L170.225 204.034C170.642 209.083 172.921 213.796 176.62 217.259C180.319 220.723 185.174 222.689 190.241 222.776H283.059L302.562 233.89L299.693 191.54C299.279 186.49 297.001 181.775 293.301 178.311C289.602 174.847 284.745 172.882 279.677 172.798Z" fill="#019A72"/>
<path opacity="0.5" d="M191.584 190.699H277.598V193.829H191.584V190.699Z" fill="#019A72"/>
<path opacity="0.5" d="M244.355 201.762H278.347V204.892H244.355V201.762Z" fill="#019A72"/>
<path opacity="0.5" d="M214.311 201.762H236.025V204.892H214.311V201.762Z" fill="#019A72"/>
</svg>
