<svg width="20" height="20" viewBox="0 0 20 20" fill="none" xmlns="http://www.w3.org/2000/svg">
<path d="M1.6665 5.83203L5.99471 8.7175C6.24441 8.88397 6.36926 8.9672 6.50433 9.02617C6.62423 9.0785 6.74986 9.11654 6.87865 9.1395C7.02375 9.16536 7.1738 9.16536 7.47391 9.16536H12.5258C12.8259 9.16536 12.9759 9.16536 13.121 9.1395C13.2498 9.11654 13.3754 9.0785 13.4953 9.02617C13.6304 8.9672 13.7553 8.88396 14.005 8.7175L18.3332 5.83203M5.6665 16.6654H14.3332C15.7333 16.6654 16.4334 16.6654 16.9681 16.3929C17.4386 16.1532 17.821 15.7707 18.0607 15.3003C18.3332 14.7656 18.3332 14.0655 18.3332 12.6654V7.33203C18.3332 5.9319 18.3332 5.23183 18.0607 4.69705C17.821 4.22665 17.4386 3.8442 16.9681 3.60451C16.4334 3.33203 15.7333 3.33203 14.3332 3.33203H5.6665C4.26637 3.33203 3.56631 3.33203 3.03153 3.60451C2.56112 3.8442 2.17867 4.22665 1.93899 4.69705C1.6665 5.23183 1.6665 5.9319 1.6665 7.33203V12.6654C1.6665 14.0655 1.6665 14.7656 1.93899 15.3003C2.17867 15.7707 2.56112 16.1532 3.03153 16.3929C3.56631 16.6654 4.26637 16.6654 5.6665 16.6654Z" stroke="#5B5F5D" stroke-width="1.66667" stroke-linecap="round" stroke-linejoin="round"/>
</svg>
